<svg width="24" height="24" viewBox="0 0 24 24" fill="none" xmlns="http://www.w3.org/2000/svg">
<rect width="24" height="24" rx="6" fill="#00005B"/>
<path d="M10.0745 15.0541H6.68712L5.99504 17.4064C5.97685 17.4961 5.90404 17.5559 5.82208 17.546H4.11011C4.00998 17.546 3.98266 17.4862 4.00998 17.3666L6.94211 8.16658C6.96943 8.06697 6.99675 7.97726 7.03311 7.85765C7.06957 7.64834 7.08775 7.42902 7.08775 7.20971C7.0787 7.1599 7.11507 7.1101 7.16057 7.1001H9.51903C9.5828 7.1001 9.6283 7.13 9.63744 7.17981L12.9611 17.3466C12.9884 17.4563 12.9611 17.5061 12.8701 17.5061H10.9669C10.9032 17.5161 10.8394 17.4662 10.8212 17.3965L10.0745 15.0043V15.0541ZM7.21529 13.0706H9.52816C9.47353 12.8612 9.40062 12.6121 9.31867 12.3529C9.23672 12.0838 9.15476 11.7948 9.07281 11.4957C8.98181 11.1867 8.89986 10.8877 8.80877 10.5788C8.71768 10.2698 8.63581 9.98072 8.56291 9.6916C8.49009 9.41257 8.42632 9.15336 8.36255 8.91414H8.34437C8.26241 9.34277 8.16228 9.7714 8.03474 10.1999C7.89815 10.6784 7.76156 11.1768 7.61592 11.6751C7.49752 12.1835 7.35179 12.6519 7.21529 13.0706ZM18.3245 14.157H15.4379C15.4743 14.4661 15.5654 14.775 15.7202 15.0441C15.8841 15.3132 16.1117 15.5225 16.3849 15.6422C16.7492 15.8117 17.1498 15.9014 17.5505 15.8914C17.8692 15.8814 18.1879 15.8515 18.4975 15.7818C18.7752 15.742 19.0474 15.665 19.3079 15.5524C19.3534 15.5126 19.3807 15.5325 19.3807 15.6322V17.1573C19.3807 17.1971 19.3717 17.237 19.3626 17.2769C19.3444 17.3068 19.3261 17.3267 19.2988 17.3466C19.0076 17.4866 18.7018 17.587 18.3883 17.6456C17.9623 17.7353 17.5289 17.7754 17.0952 17.7652C16.4031 17.7652 15.8204 17.6456 15.3468 17.4164C14.9006 17.2071 14.5091 16.8781 14.1995 16.4695C13.9112 16.0855 13.6974 15.6412 13.5712 15.1637C13.4437 14.6953 13.38 14.2068 13.38 13.7085C13.38 13.1703 13.4528 12.642 13.6076 12.1237C13.7528 11.6246 13.9847 11.1609 14.2906 10.7582C14.5911 10.3594 14.9644 10.0405 15.3923 9.81121C15.8204 9.58199 16.3303 9.50228 16.9131 9.50228C17.3957 9.49228 17.8783 9.59199 18.3245 9.81121C18.6978 9.99062 19.0256 10.2597 19.2806 10.6087C19.5173 10.9475 19.7086 11.3263 19.827 11.745C19.9454 12.1436 20 12.5523 20 12.9609C20 13.2002 19.9909 13.4095 19.9817 13.5989C19.9635 13.7882 19.9544 13.9278 19.9454 14.0175C19.9362 14.0872 19.8816 14.147 19.8178 14.147C19.7632 14.147 19.6631 14.157 19.5173 14.167C19.3717 14.1869 19.1987 14.1969 18.9892 14.1969C18.7798 14.1969 18.5612 14.157 18.3245 14.157ZM15.4379 12.7018H17.3592C17.596 12.7018 17.769 12.7018 17.8783 12.6918C17.9512 12.6818 18.024 12.6619 18.0878 12.6121V12.5124C18.088 12.387 18.0696 12.2624 18.0331 12.1436C17.8692 11.5854 17.3865 11.2067 16.8493 11.2266C16.6022 11.2115 16.3563 11.2749 16.1414 11.4093C15.9265 11.5438 15.7517 11.7434 15.6382 11.9842C15.5289 12.2134 15.4653 12.4526 15.4379 12.7018Z" fill="#9999FF"/>
</svg>
