<svg width="24" height="24" viewBox="0 0 24 24" fill="none" xmlns="http://www.w3.org/2000/svg">
<rect width="24" height="24" rx="6" fill="#F4F2ED"/>
<g clip-path="url(#clip0_94_2098)">
<path d="M9.33366 4H12.0003V9.33333H9.33366C8.62641 9.33333 7.94814 9.05238 7.44804 8.55229C6.94794 8.05219 6.66699 7.37391 6.66699 6.66667C6.66699 5.95942 6.94794 5.28115 7.44804 4.78105C7.94814 4.28095 8.62641 4 9.33366 4Z" fill="#F4511E"/>
<path d="M14.6667 9.33333H12V4H14.6667C15.3739 4 16.0522 4.28095 16.5523 4.78105C17.0524 5.28115 17.3333 5.95942 17.3333 6.66667C17.3333 7.37391 17.0524 8.05219 16.5523 8.55229C16.0522 9.05238 15.3739 9.33333 14.6667 9.33333Z" fill="#FF8A65"/>
<path d="M11.9997 12.0001C11.9997 13.4728 13.1936 14.6667 14.6663 14.6667C16.1391 14.6667 17.333 13.4728 17.333 12.0001C17.333 10.5273 16.1391 9.33341 14.6663 9.33341C13.1936 9.33341 11.9997 10.5273 11.9997 12.0001Z" fill="#29B6F6"/>
<path d="M9.33366 9.33325H12.0003V14.6666H9.33366C8.62641 14.6666 7.94814 14.3856 7.44804 13.8855C6.94794 13.3854 6.66699 12.7072 6.66699 11.9999C6.66699 11.2927 6.94794 10.6144 7.44804 10.1143C7.94814 9.6142 8.62641 9.33325 9.33366 9.33325Z" fill="#7C4DFF"/>
<path d="M9.33366 14.6667H12.0003V17.3334C12.0003 18.0407 11.7194 18.7189 11.2193 19.219C10.7192 19.7191 10.0409 20.0001 9.33366 20.0001C8.62641 20.0001 7.94814 19.7191 7.44804 19.219C6.94794 18.7189 6.66699 18.0407 6.66699 17.3334C6.66699 16.6262 6.94794 15.9479 7.44804 15.4478C7.94814 14.9477 8.62641 14.6667 9.33366 14.6667Z" fill="#00E676"/>
</g>
<defs>
<clipPath id="clip0_94_2098">
<rect width="16" height="16" fill="white" transform="translate(4 4)"/>
</clipPath>
</defs>
</svg>
