<svg width="24" height="24" viewBox="0 0 24 24" fill="none" xmlns="http://www.w3.org/2000/svg">
<rect width="24" height="24" rx="6" fill="#242424"/>
<g clip-path="url(#clip0_94_2192)">
<path d="M12 4.1001C10.9494 4.1001 9.90914 4.30702 8.93853 4.70906C7.96793 5.1111 7.08601 5.70037 6.34315 6.44324C4.84285 7.94353 4 9.97837 4 12.1001C4 15.6361 6.296 18.6361 9.472 19.7001C9.872 19.7641 10 19.5161 10 19.3001V17.9481C7.784 18.4281 7.312 16.8761 7.312 16.8761C6.944 15.9481 6.424 15.7001 6.424 15.7001C5.696 15.2041 6.48 15.2201 6.48 15.2201C7.28 15.2761 7.704 16.0441 7.704 16.0441C8.4 17.2601 9.576 16.9001 10.032 16.7081C10.104 16.1881 10.312 15.8361 10.536 15.6361C8.76 15.4361 6.896 14.7481 6.896 11.7001C6.896 10.8121 7.2 10.1001 7.72 9.5321C7.64 9.3321 7.36 8.5001 7.8 7.4201C7.8 7.4201 8.472 7.2041 10 8.2361C10.632 8.0601 11.32 7.9721 12 7.9721C12.68 7.9721 13.368 8.0601 14 8.2361C15.528 7.2041 16.2 7.4201 16.2 7.4201C16.64 8.5001 16.36 9.3321 16.28 9.5321C16.8 10.1001 17.104 10.8121 17.104 11.7001C17.104 14.7561 15.232 15.4281 13.448 15.6281C13.736 15.8761 14 16.3641 14 17.1081V19.3001C14 19.5161 14.128 19.7721 14.536 19.7001C17.712 18.6281 20 15.6361 20 12.1001C20 11.0495 19.7931 10.0092 19.391 9.03863C18.989 8.06803 18.3997 7.18611 17.6569 6.44324C16.914 5.70037 16.0321 5.1111 15.0615 4.70906C14.0909 4.30702 13.0506 4.1001 12 4.1001Z" fill="white"/>
</g>
<defs>
<clipPath id="clip0_94_2192">
<rect width="16" height="16" fill="white" transform="translate(4 4)"/>
</clipPath>
</defs>
</svg>
