<svg width="24" height="24" viewBox="0 0 24 24" fill="none" xmlns="http://www.w3.org/2000/svg">
<g clip-path="url(#clip0_87_2996)">
<path d="M19.2 0H4.8C2.14903 0 0 2.14903 0 4.8V19.2C0 21.851 2.14903 24 4.8 24H19.2C21.851 24 24 21.851 24 19.2V4.8C24 2.14903 21.851 0 19.2 0Z" fill="#D1FE17"/>
<path d="M20.5148 11.861L20.5005 11.7078C20.3648 10.2374 19.3867 7.47101 16.6734 7.47101C14.66 7.47101 13.1391 9.41522 11.7968 11.1293C10.7257 12.502 9.7977 13.6796 8.77657 13.6796C8.50515 13.6518 8.15537 13.5194 7.94127 13.2198C7.74848 12.9479 7.69852 12.5995 7.7984 12.1814C7.95539 11.5194 8.85516 10.9062 9.80466 10.2512C10.3258 9.90284 10.8614 9.53349 11.2327 9.17813C12.3038 8.16777 12.8464 7.43607 12.8464 6.25851C12.8464 5.08097 12.1824 4.49549 11.6255 4.2446C10.5116 3.74302 8.87664 4.03564 7.83421 4.91377C7.67723 5.05321 7.52005 5.18544 7.37718 5.31088C6.3276 6.22375 5.62085 6.84399 4 6.36996V8.27923C6.14911 9.20608 7.95561 7.43607 8.64106 6.62086C9.16935 6.08431 9.72626 5.77071 10.1405 5.77071H10.162C10.3477 5.7777 10.5047 5.8474 10.6191 5.97285C10.8047 6.18199 10.8762 6.42589 10.8403 6.69756C10.7617 7.26908 10.1549 7.93783 9.04099 8.66953C7.73433 9.52668 5.5496 10.9621 5.3781 12.7669C5.24955 14.0631 5.93501 15.3591 7.0061 15.8607C9.50502 17.0175 11.026 15.0245 12.6394 12.9201C13.8747 11.2965 15.0456 9.75662 16.6737 9.75662C18.1373 9.75662 18.6799 10.9411 18.6799 11.6868V11.8332L18.5371 11.861C14.9885 12.4742 13.0535 15.7215 13.0535 17.2196C13.0535 18.7178 14.353 20 15.9524 20C17.8231 20 20.1364 18.4391 20.5077 14.0491L20.522 13.8889H22V11.8612L20.5148 11.861ZM18.5798 14.1116C18.2943 16.7386 16.9162 17.9651 16.0809 17.9651C15.7025 17.9651 15.1742 17.6585 15.1742 17.0872C15.1742 16.4462 16.1523 14.502 18.3514 13.9237L18.6085 13.861L18.5798 14.1116Z" fill="#131313"/>
</g>
<defs>
<clipPath id="clip0_87_2996">
<rect width="24" height="24" fill="white"/>
</clipPath>
</defs>
</svg>
