<svg width="24" height="24" viewBox="0 0 24 24" fill="none" xmlns="http://www.w3.org/2000/svg">
<rect width="24" height="24" rx="6" fill="#330000"/>
<path d="M12.0062 15.7452H7.54162L6.62946 18.5848C6.6055 18.6935 6.50952 18.766 6.40151 18.7539H4.14513C4.01315 18.7539 3.97714 18.6814 4.01315 18.5364L7.8777 7.33542C7.91371 7.21467 7.94971 7.08168 7.99765 6.93668C8.04569 6.68294 8.06966 6.41719 8.06966 6.15132C8.05773 6.09094 8.10566 6.03045 8.16574 6.01845H11.2741C11.3702 6.01845 11.4181 6.0547 11.4301 6.11507L15.8107 18.5606C15.8467 18.6935 15.8107 18.7539 15.6908 18.7539H13.1823C13.0984 18.766 13.0144 18.7056 12.9904 18.621L12.0062 15.7452ZM8.23775 13.2924H11.2861C11.2141 13.0387 11.1181 12.7365 11.0101 12.4224C10.9021 12.0962 10.7941 11.7458 10.6861 11.3833C10.566 11.0087 10.458 10.6462 10.338 10.2716C10.218 9.8971 10.11 9.54662 10.0139 9.19625C9.91794 8.858 9.83389 8.54376 9.74996 8.25377H9.72588C9.61786 8.77338 9.48588 9.29299 9.3179 9.81248C9.13787 10.3925 8.95785 10.9966 8.76579 11.6008C8.61082 12.1711 8.43468 12.7354 8.23775 13.2924ZM18.4871 8.1329C18.091 8.14502 17.707 7.98791 17.419 7.71003C17.143 7.40792 16.999 7.00918 17.0109 6.59843C16.999 6.18757 17.1549 5.80095 17.4429 5.52297C17.731 5.24498 18.1151 5.1001 18.5112 5.1001C18.9792 5.1001 19.3393 5.24509 19.6032 5.52297C19.8693 5.81589 20.0113 6.20171 19.9993 6.59843C20.0113 7.00918 19.8673 7.40792 19.5793 7.71003C19.3033 8.00003 18.8952 8.15714 18.4871 8.1329ZM17.143 18.621V9.31712C17.143 9.19625 17.1909 9.14788 17.2989 9.14788H19.6752C19.7833 9.14788 19.8313 9.20837 19.8313 9.31712V18.621C19.8313 18.7539 19.7833 18.8144 19.6752 18.8144H17.323C17.203 18.8144 17.143 18.7419 17.143 18.621Z" fill="#FF9A00"/>
</svg>
