<svg width="24" height="24" viewBox="0 0 24 24" fill="none" xmlns="http://www.w3.org/2000/svg">
<rect width="24" height="24" rx="6" fill="#001E36"/>
<path d="M4 17.7146V6.27902C4 6.19559 4.03575 6.15383 4.10724 6.15376L4.2203 6.15345L4.41355 6.15137L4.68211 6.14605L5.58181 6.12698L6.54651 6.10906C6.8858 6.10315 7.22217 6.10017 7.55563 6.1001C8.46054 6.1001 9.22266 6.21344 9.84202 6.44013C10.4008 6.62935 10.9104 6.94115 11.3335 7.35278C11.6924 7.70952 11.9696 8.14001 12.1463 8.61453C12.3133 9.07631 12.398 9.56393 12.3964 10.0551C12.3964 11.0097 12.1761 11.7971 11.7354 12.4174C11.3045 13.0225 10.7034 13.4853 10.0089 13.7467L9.94925 13.7685C9.22398 14.0396 8.4208 14.1375 7.53993 14.1437L7.40305 14.1441L7.19991 14.1431L7.09746 14.1416L6.98326 14.1389L6.9144 14.1362L6.87259 14.134L6.76972 14.1303L6.64397 14.1276L6.45467 14.1263L6.41255 14.1262V17.6967C6.41568 17.7185 6.41368 17.7409 6.4067 17.7618C6.39973 17.7828 6.38798 17.8019 6.37237 17.8175C6.35677 17.8331 6.33774 17.8449 6.3168 17.8519C6.29587 17.8589 6.27359 17.8609 6.25175 17.8578H4.12513C4.04164 17.8578 3.99993 17.8101 4 17.7146ZM6.41265 8.30128V12.0311C6.56728 12.0431 6.71012 12.0491 6.84118 12.049H7.43072C7.83717 12.0476 8.24125 11.987 8.63028 11.869L8.70787 11.8448C9.06182 11.7395 9.37808 11.5345 9.61891 11.2541C9.84274 10.9896 9.95868 10.6252 9.96673 10.1608L9.96725 10.1088C9.97661 9.76259 9.88674 9.42099 9.70815 9.12452C9.52054 8.83773 9.24923 8.61587 8.93119 8.48917C8.51599 8.3274 8.07246 8.25134 7.62719 8.26554L7.40066 8.26616L7.25775 8.26741L7.12139 8.26918L6.92897 8.27294L6.78855 8.2769L6.71564 8.27961L6.61818 8.28419L6.53518 8.2893L6.48785 8.29305L6.44698 8.29701L6.42898 8.29909L6.41265 8.30128ZM19.3028 11.3529C18.9912 11.1925 18.6607 11.072 18.3191 10.9942L18.24 10.9771C17.8642 10.8907 17.4805 10.8432 17.095 10.8351L16.9986 10.8339C16.7726 10.8278 16.5469 10.8549 16.3288 10.9145C16.19 10.9456 16.0666 11.0248 15.9804 11.1381C15.9221 11.2289 15.8911 11.3345 15.8911 11.4424C15.8944 11.5471 15.932 11.6477 15.9983 11.7287C16.0931 11.8397 16.207 11.9328 16.3347 12.0035L16.3734 12.024C16.6281 12.1614 16.8905 12.2839 17.1593 12.3908C17.7588 12.592 18.3316 12.8654 18.8651 13.2051C19.2286 13.4349 19.5294 13.7517 19.7405 14.1268C19.9178 14.482 20.0067 14.875 19.9995 15.2721C20.0101 15.7965 19.8605 16.3117 19.5707 16.7486C19.2605 17.192 18.8296 17.5367 18.3293 17.7417C17.8053 17.9723 17.1619 18.0915 16.3991 18.0993L16.3199 18.0997C15.847 18.1044 15.3747 18.063 14.9099 17.9759L14.8104 17.9566C14.419 17.8846 14.0381 17.7644 13.6762 17.5986C13.6398 17.5798 13.609 17.5517 13.5871 17.5171C13.5651 17.4825 13.5527 17.4426 13.5512 17.4016V15.4511C13.549 15.4322 13.5521 15.413 13.5599 15.3956C13.5678 15.3783 13.5802 15.3634 13.5959 15.3526C13.6112 15.3439 13.6288 15.3401 13.6464 15.3417C13.6639 15.3433 13.6806 15.3502 13.6941 15.3616C14.1214 15.614 14.5855 15.7982 15.0694 15.9074C15.496 16.0146 15.9336 16.0717 16.3734 16.0775C16.7901 16.0775 17.0967 16.0238 17.2933 15.9164C17.382 15.8756 17.4571 15.81 17.5094 15.7274C17.5617 15.6448 17.589 15.5489 17.5881 15.4511C17.5881 15.2962 17.4988 15.147 17.3201 15.0037C17.2452 14.9437 17.1379 14.8784 16.998 14.8078L16.9311 14.7749L16.8598 14.7412L16.8223 14.7241L16.7439 14.6893L16.703 14.6716L16.6177 14.6358L16.5733 14.6175L16.4812 14.5805L16.4333 14.5618L16.3342 14.5235L16.2305 14.4847C15.6696 14.2892 15.1377 14.0183 14.6496 13.6793C14.3005 13.4361 14.013 13.1143 13.8102 12.7398C13.6346 12.3871 13.5458 11.9975 13.5512 11.6034C13.5501 11.1299 13.6799 10.6653 13.9262 10.2612C14.2071 9.81625 14.6102 9.46195 15.0873 9.24124C15.6112 8.97891 16.2661 8.84764 17.0521 8.84743C17.5125 8.84373 17.9724 8.87666 18.4275 8.94591C18.7571 8.98784 19.0793 9.07515 19.3851 9.20539C19.4343 9.21956 19.4739 9.25593 19.4922 9.30386C19.5044 9.34753 19.5103 9.39265 19.5101 9.43808V11.2456C19.5127 11.2883 19.4922 11.3292 19.4565 11.3529C19.4326 11.3648 19.4063 11.371 19.3797 11.371C19.353 11.371 19.3267 11.3648 19.3028 11.3529Z" fill="#31A8FF"/>
</svg>
